<?xml version="1.0" encoding="utf-8"?>
<!-- Generator: Adobe Illustrator 21.0.0, SVG Export Plug-In . SVG Version: 6.00 Build 0)  -->
<svg version="1.1" id="Capa_1" xmlns="http://www.w3.org/2000/svg" xmlns:xlink="http://www.w3.org/1999/xlink" x="0px" y="0px"
	 viewBox="0 0 167 49.5" style="enable-background:new 0 0 167 49.5;" xml:space="preserve">
<style type="text/css">
	.st0{fill:#FF2D20;}
</style>
<title>Logotype</title>
<path class="st0" d="M57.8,10.4v23h8.3v4H53.3v-27C53.3,10.4,57.8,10.4,57.8,10.4z M81.8,21.9v-2.4H86v18h-4.2V35
	c-0.6,0.9-1.4,1.6-2.4,2.1c-1,0.5-2.1,0.8-3.1,0.8c-1.4,0-2.6-0.3-3.7-0.8c-1.1-0.5-2.1-1.2-2.9-2.1c-0.8-0.9-1.5-1.9-1.9-3
	c-0.5-1.2-0.7-2.4-0.7-3.6c0-1.3,0.2-2.5,0.7-3.6c0.4-1.1,1.1-2.1,1.9-3c0.8-0.9,1.8-1.6,2.9-2.1c1.1-0.5,2.4-0.8,3.7-0.8
	c1.1,0,2.1,0.3,3.1,0.8C80.4,20.3,81.2,21,81.8,21.9L81.8,21.9z M81.4,30.6c0.3-0.7,0.4-1.4,0.4-2.2c0-0.8-0.1-1.5-0.4-2.2
	c-0.2-0.7-0.6-1.3-1.1-1.8c-0.5-0.5-1-0.9-1.7-1.2c-0.7-0.3-1.4-0.5-2.2-0.5c-0.8,0-1.5,0.2-2.2,0.5c-0.6,0.3-1.2,0.7-1.7,1.2
	c-0.5,0.5-0.8,1.1-1.1,1.8c-0.2,0.7-0.4,1.5-0.4,2.2c0,0.8,0.1,1.5,0.4,2.2c0.2,0.7,0.6,1.3,1.1,1.8c0.5,0.5,1,0.9,1.7,1.2
	c0.6,0.3,1.4,0.5,2.2,0.5s1.5-0.2,2.2-0.5c0.6-0.3,1.2-0.7,1.7-1.2C80.8,31.9,81.2,31.3,81.4,30.6z M89.3,37.4v-18h11.4v4.1h-7.2
	v13.9L89.3,37.4L89.3,37.4z M116,21.9v-2.4h4.2v18H116V35c-0.6,0.9-1.4,1.6-2.4,2.1c-1,0.5-2.1,0.8-3.1,0.8c-1.4,0-2.6-0.3-3.7-0.8
	c-1.1-0.5-2.1-1.2-2.9-2.1c-0.8-0.9-1.5-1.9-1.9-3c-0.5-1.2-0.7-2.4-0.7-3.6c0-1.3,0.2-2.5,0.7-3.6c0.4-1.1,1.1-2.1,1.9-3
	c0.8-0.9,1.8-1.6,2.9-2.1c1.1-0.5,2.4-0.8,3.7-0.8c1.1,0,2.1,0.3,3.1,0.8C114.6,20.3,115.4,21,116,21.9z M115.6,30.6
	c0.3-0.7,0.4-1.4,0.4-2.2c0-0.8-0.1-1.5-0.4-2.2c-0.2-0.7-0.6-1.3-1.1-1.8c-0.5-0.5-1-0.9-1.7-1.2c-0.7-0.3-1.4-0.5-2.2-0.5
	c-0.8,0-1.5,0.2-2.2,0.5c-0.6,0.3-1.2,0.7-1.7,1.2c-0.5,0.5-0.8,1.1-1.1,1.8c-0.2,0.7-0.4,1.5-0.4,2.2c0,0.8,0.1,1.5,0.4,2.2
	c0.2,0.7,0.6,1.3,1.1,1.8c0.5,0.5,1,0.9,1.7,1.2c0.6,0.3,1.4,0.5,2.2,0.5c0.8,0,1.5-0.2,2.2-0.5c0.6-0.3,1.2-0.7,1.7-1.2
	C115,31.9,115.4,31.3,115.6,30.6z M137.1,19.5h4.3l-6.9,18h-5.3l-6.9-18h4.3l5.3,13.8L137.1,19.5z M150.5,19c5.7,0,9.6,5.1,8.9,11
	h-14c0,1.6,1.6,4.6,5.3,4.6c3.2,0,5.3-2.8,5.3-2.8l2.8,2.2c-2.5,2.7-4.6,4-7.9,4c-5.8,0-9.8-3.7-9.8-9.5
	C141.3,23.2,145.4,19,150.5,19L150.5,19z M145.5,26.9h10.1c0-0.3-0.6-4.6-5.1-4.6C146,22.3,145.5,26.5,145.5,26.9z M162.1,37.4v-27
	h4.2v27H162.1z"/>
<path class="st0" d="M48.7,11.4c0,0.1,0,0.1,0,0.2v10c0,0.3-0.1,0.5-0.4,0.6L40,27.1v9.6c0,0.3-0.1,0.5-0.4,0.6L22,47.4
	c0,0-0.1,0-0.1,0.1c0,0,0,0,0,0c-0.1,0-0.3,0-0.4,0c0,0,0,0-0.1,0c0,0-0.1,0-0.1,0L3.7,37.3c-0.2-0.1-0.4-0.4-0.4-0.6V6.6
	c0-0.1,0-0.1,0-0.2c0,0,0,0,0-0.1c0,0,0-0.1,0-0.1c0,0,0,0,0.1-0.1c0,0,0-0.1,0.1-0.1c0,0,0,0,0.1-0.1c0,0,0.1,0,0.1-0.1h0l8.8-5.1
	c0.2-0.1,0.5-0.1,0.7,0L22,5.9h0c0,0,0.1,0,0.1,0.1c0,0,0.1,0,0.1,0.1c0,0,0,0.1,0.1,0.1c0,0,0,0,0,0.1c0,0,0,0.1,0,0.1
	c0,0,0,0,0,0.1c0,0.1,0,0.1,0,0.2v18.8l7.3-4.2v-9.6c0-0.1,0-0.1,0-0.2c0,0,0,0,0-0.1c0,0,0-0.1,0-0.1c0,0,0,0,0-0.1
	c0,0,0-0.1,0.1-0.1c0,0,0,0,0.1-0.1c0,0,0.1,0,0.1-0.1h0l8.8-5.1c0.2-0.1,0.5-0.1,0.7,0l8.8,5.1c0,0,0.1,0,0.1,0.1c0,0,0,0,0.1,0.1
	c0,0,0,0.1,0.1,0.1c0,0,0,0,0,0.1C48.7,11.2,48.7,11.3,48.7,11.4C48.7,11.3,48.7,11.3,48.7,11.4z M47.3,21.2v-8.3l-3.1,1.8L40,17
	v8.3L47.3,21.2L47.3,21.2z M38.5,36.3v-8.4l-4.2,2.4l-11.9,6.8v8.4C22.4,45.5,38.5,36.3,38.5,36.3z M4.8,7.8v28.4l16.1,9.3v-8.4
	l-8.4-4.8l0,0l0,0c0,0-0.1,0-0.1-0.1c0,0,0,0-0.1-0.1l0,0c0,0,0-0.1-0.1-0.1c0,0,0,0-0.1-0.1l0,0c0,0,0-0.1,0-0.1c0,0,0-0.1,0-0.1v0
	c0,0,0-0.1,0-0.1c0,0,0-0.1,0-0.1v0V12.1L7.9,9.6L4.8,7.8L4.8,7.8z M12.9,2.4L5.5,6.6l7.3,4.2l7.3-4.2L12.9,2.4L12.9,2.4z
	 M16.7,28.7l4.2-2.4V7.8l-3.1,1.8l-4.2,2.4v18.4C13.6,30.4,16.7,28.7,16.7,28.7z M39.2,7.3l-7.3,4.2l7.3,4.2l7.3-4.2
	C46.6,11.6,39.2,7.3,39.2,7.3z M38.5,17l-4.2-2.4l-3.1-1.8v8.3l4.2,2.4l3.1,1.8C38.5,25.4,38.5,17,38.5,17z M21.7,35.8l10.7-6.1
	l5.4-3.1l-7.3-4.2L22,27.3l-7.7,4.4C14.3,31.7,21.7,35.8,21.7,35.8z"/>
</svg>
